<?xml version="1.0" standalone="no"?>
<!DOCTYPE svg PUBLIC "-//W3C//DTD SVG 20010904//EN"
 "http://www.w3.org/TR/2001/REC-SVG-20010904/DTD/svg10.dtd">
<svg version="1.0" xmlns="http://www.w3.org/2000/svg"
 width="500.000000pt" height="169.000000pt" viewBox="0 0 500.000000 169.000000"
 preserveAspectRatio="xMidYMid meet">

<g transform="translate(0.000000,169.000000) scale(0.100000,-0.100000)"
fill="#000000" stroke="none">
<path d="M1066 1003 c-88 -241 -101 -273 -106 -273 -3 0 -12 22 -21 48 -9 26
-31 85 -48 132 -18 47 -41 109 -51 139 -11 30 -24 59 -28 63 -5 5 -36 8 -70 6
l-60 -3 45 -110 c25 -60 51 -123 59 -140 7 -16 36 -88 64 -160 29 -71 56 -135
60 -140 5 -6 30 -8 60 -5 l51 5 41 105 c22 58 46 119 53 135 7 17 29 73 49
127 20 53 45 115 55 139 11 24 17 47 15 51 -3 4 -31 8 -64 8 l-58 0 -46 -127z"/>
<path d="M1750 845 l0 -285 55 0 55 0 0 170 c0 94 3 170 8 170 4 -1 68 -77
142 -170 l134 -170 53 0 53 0 -2 283 -3 282 -57 3 -58 3 -2 -182 -3 -181 -60
77 c-33 43 -98 124 -143 181 -84 104 -84 104 -128 104 l-44 0 0 -285z"/>
<path d="M2484 1121 c-2 -2 -4 -130 -4 -283 0 -215 3 -278 13 -279 6 0 72 0
145 1 149 1 199 15 261 73 111 105 109 317 -4 416 -66 58 -107 69 -264 73 -78
2 -144 2 -147 -1z m298 -131 c55 -37 81 -86 81 -150 0 -118 -70 -179 -210
-180 l-63 0 0 181 0 182 79 -5 c62 -4 87 -10 113 -28z"/>
<path d="M3211 1122 c-6 -2 -11 -26 -11 -53 l0 -49 190 0 190 0 0 54 0 54
-179 -1 c-99 -1 -184 -3 -190 -5z"/>
<path d="M1450 1106 l-35 -13 -3 -266 -2 -267 60 0 60 0 0 280 0 280 -22 -1
c-13 0 -39 -6 -58 -13z"/>
<path d="M3810 840 l0 -280 60 0 60 0 0 105 c0 105 0 105 24 105 18 0 33 -12
54 -42 16 -24 48 -71 72 -105 l44 -63 63 0 64 0 -75 110 -75 109 35 22 c84 52
100 188 30 267 -38 43 -78 52 -222 52 l-134 0 0 -280z m261 161 c17 -13 23
-29 23 -56 0 -54 -29 -75 -105 -75 l-59 0 0 75 0 75 59 0 c43 0 65 -5 82 -19z"/>
<path d="M3200 845 l0 -55 190 0 190 0 0 55 0 55 -190 0 -190 0 0 -55z"/>
<path d="M3200 615 l0 -55 190 0 190 0 0 55 0 55 -190 0 -190 0 0 -55z"/>
</g>
</svg>
